<svg xmlns="http://www.w3.org/2000/svg" xmlns:xlink="http://www.w3.org/1999/xlink" width="500" zoomAndPan="magnify" viewBox="0 0 375 374.999991" height="500" preserveAspectRatio="xMidYMid meet" version="1.0"><defs><g/><clipPath id="72b20ab409"><path d="M 123.371094 91.140625 L 251.617188 91.140625 L 251.617188 222.390625 L 123.371094 222.390625 Z M 123.371094 91.140625 " clip-rule="nonzero"/></clipPath></defs><g clip-path="url(#72b20ab409)"><path fill="#d3b593" d="M 189.308594 139.269531 C 193.433594 139.6875 197.089844 141.574219 199.859375 144.296875 C 200.457031 144.953125 201.085938 145.660156 201.582031 146.421875 C 203.828125 143.410156 208.65625 135.785156 206.59375 127.613281 C 206.359375 126.617188 206.125 125.597656 205.996094 124.550781 C 205.003906 124.917969 204.035156 125.257812 202.992188 125.546875 C 194.921875 127.851562 190.769531 135.839844 189.308594 139.269531 Z M 146.242188 142.519531 C 145.644531 141.445312 145.121094 140.316406 144.703125 139.140625 C 143.867188 136.886719 143.449219 134.449219 143.449219 131.988281 C 143.449219 131.515625 143.683594 131.046875 144.101562 130.863281 C 146.21875 129.632812 148.515625 128.792969 150.890625 128.375 C 152.121094 128.191406 153.320312 128.035156 154.546875 128.035156 C 153.738281 127.328125 152.851562 126.671875 151.882812 126.09375 L 151.832031 126.042969 L 151.597656 125.910156 C 148.644531 124.210938 145.355469 123.371094 142.167969 123.320312 C 139.113281 123.320312 136.136719 124.027344 133.394531 125.441406 C 133.527344 128.453125 134.414062 131.414062 135.980469 134.03125 C 137.625 136.808594 139.925781 139.191406 142.875 140.945312 L 142.953125 140.945312 C 144.023438 141.628906 145.121094 142.097656 146.242188 142.519531 Z M 159.589844 129.632812 C 159.640625 129.683594 159.71875 129.761719 159.769531 129.867188 C 160.945312 131.515625 161.835938 133.246094 162.488281 135.132812 C 163.191406 137.015625 163.609375 138.980469 163.742188 141 L 163.742188 141.601562 L 163.792969 141.707031 L 163.792969 142.492188 L 163.742188 142.542969 L 163.742188 142.753906 L 163.6875 142.804688 L 163.6875 142.910156 L 163.636719 142.910156 L 163.636719 143.015625 L 163.582031 143.015625 L 163.582031 143.066406 L 163.53125 143.121094 L 163.53125 143.171875 L 163.480469 143.226562 L 163.425781 143.277344 L 163.425781 143.328125 L 163.375 143.328125 L 163.375 143.382812 L 163.324219 143.382812 L 163.269531 143.433594 L 163.21875 143.488281 C 163.167969 143.539062 163.113281 143.589844 163.085938 143.589844 C 162.90625 143.695312 162.722656 143.773438 162.566406 143.878906 L 162.460938 143.933594 L 162.355469 143.984375 L 162.253906 144.035156 L 162.199219 144.089844 L 162.09375 144.140625 L 161.992188 144.195312 L 161.78125 144.296875 L 161.730469 144.296875 L 161.675781 144.351562 L 161.757812 144.167969 L 161.625 144.21875 L 161.574219 144.21875 C 159.929688 145.03125 158.152344 145.582031 156.324219 145.921875 C 154.3125 146.261719 152.199219 146.339844 150.136719 146.105469 C 149.847656 146.054688 149.558594 146 149.324219 146 L 149.273438 146 L 149.140625 145.949219 L 149.039062 145.949219 C 146.6875 145.582031 144.390625 144.769531 142.195312 143.589844 C 138.199219 143.589844 134.648438 144.246094 131.878906 145.476562 C 130 146.289062 128.511719 147.3125 127.519531 148.542969 C 126.527344 149.71875 126.03125 151.03125 125.980469 152.496094 C 125.980469 152.96875 126.03125 153.441406 126.109375 153.910156 C 126.160156 153.859375 126.238281 153.78125 126.292969 153.726562 C 128.304688 151.660156 131.070312 150.664062 134.203125 150.636719 C 137.15625 150.53125 140.445312 151.34375 143.578125 152.707031 C 145.121094 153.359375 146.660156 154.199219 148.125 155.140625 C 149.117188 154.433594 150.054688 153.648438 150.890625 152.785156 C 157.027344 146.761719 165.699219 146.523438 170.398438 146.867188 C 167.734375 143.015625 163.609375 135.316406 165.75 127.039062 C 166.039062 125.859375 166.273438 124.628906 166.40625 123.421875 C 164.8125 122.613281 163.347656 121.722656 161.992188 120.699219 C 159.222656 118.683594 156.925781 116.195312 155.488281 113.601562 C 154.027344 110.878906 153.476562 107.96875 154.234375 105.195312 C 154.285156 105.089844 154.285156 105.011719 154.339844 104.957031 C 153.871094 105.089844 153.453125 105.296875 153.085938 105.535156 C 151.832031 106.292969 150.917969 107.421875 150.421875 108.835938 C 149.898438 110.328125 149.71875 112.160156 149.953125 114.203125 C 150.316406 117.214844 151.492188 120.59375 153.503906 124.078125 C 155.617188 125.386719 157.445312 127.039062 158.933594 128.871094 L 159.039062 128.976562 L 159.09375 129.082031 L 159.195312 129.1875 L 159.25 129.289062 L 159.351562 129.34375 L 159.351562 129.394531 L 159.40625 129.5 L 159.457031 129.5 L 159.511719 129.605469 L 159.667969 129.761719 L 159.667969 129.632812 Z M 147.183594 138.25 C 147.835938 140.082031 148.777344 141.808594 150.003906 143.410156 C 151.960938 143.644531 153.949219 143.589844 155.90625 143.277344 C 157.316406 143.042969 158.726562 142.621094 160.085938 142.019531 L 160.136719 142.019531 L 160.242188 141.96875 C 160.347656 141.914062 160.425781 141.863281 160.582031 141.835938 L 160.632812 141.785156 L 160.683594 141.785156 L 160.738281 141.730469 L 160.84375 141.679688 L 160.894531 141.679688 L 161 141.628906 L 161.101562 141.574219 L 161.234375 141.46875 L 161.234375 141 L 161.179688 141 L 161.179688 140.527344 L 161.128906 140.421875 L 161.128906 140.003906 L 161.078125 139.949219 L 161.078125 139.847656 C 161.078125 139.714844 161.078125 139.609375 161.023438 139.480469 L 161.023438 139.324219 C 160.84375 138.144531 160.503906 136.964844 160.136719 135.839844 C 159.433594 134.003906 158.492188 132.277344 157.289062 130.679688 C 155.332031 130.390625 153.347656 130.441406 151.441406 130.808594 C 149.613281 131.148438 147.835938 131.753906 146.140625 132.589844 C 146.140625 134.632812 146.503906 136.492188 147.183594 138.25 Z M 154.523438 185.445312 C 153.292969 185.445312 152.09375 185.316406 150.867188 185.105469 C 148.464844 184.6875 146.191406 183.847656 144.078125 182.617188 C 143.605469 182.382812 143.371094 181.910156 143.421875 181.386719 C 143.421875 178.976562 143.894531 176.59375 144.675781 174.339844 C 145.09375 173.164062 145.617188 172.035156 146.21875 170.960938 C 145.09375 171.382812 144.023438 171.851562 142.925781 172.507812 C 139.925781 174.210938 137.574219 176.644531 135.953125 179.421875 C 134.414062 182.042969 133.527344 185.027344 133.367188 188.011719 C 136.085938 189.425781 139.089844 190.136719 142.144531 190.136719 C 145.328125 190.082031 148.621094 189.246094 151.570312 187.542969 L 151.804688 187.410156 L 151.859375 187.359375 C 152.851562 186.808594 153.738281 186.128906 154.523438 185.445312 Z M 149.039062 167.53125 L 149.089844 167.53125 C 151.519531 167.164062 153.972656 167.164062 156.296875 167.582031 C 158.230469 167.949219 160.085938 168.578125 161.886719 169.417969 L 161.9375 169.417969 L 162.042969 169.46875 L 162.171875 169.574219 L 162.226562 169.574219 L 162.332031 169.625 L 162.382812 169.679688 L 162.488281 169.730469 L 162.539062 169.785156 L 162.589844 169.785156 L 162.695312 169.835938 L 162.75 169.835938 L 162.800781 169.886719 L 162.90625 169.941406 L 163.035156 170.046875 L 163.085938 170.097656 L 163.21875 170.148438 L 163.269531 170.203125 L 163.324219 170.203125 L 163.375 170.253906 L 163.425781 170.308594 L 163.480469 170.308594 L 163.480469 170.359375 L 163.53125 170.359375 L 163.53125 170.414062 L 163.582031 170.414062 L 163.582031 170.464844 L 163.636719 170.515625 L 163.636719 170.570312 L 163.6875 170.570312 L 163.6875 170.621094 L 163.742188 170.621094 L 163.742188 170.726562 L 163.792969 170.726562 L 163.792969 170.832031 L 163.84375 170.882812 L 163.84375 170.9375 L 163.898438 170.988281 L 163.898438 171.199219 L 163.949219 171.199219 L 163.949219 171.75 C 163.898438 174.054688 163.425781 176.410156 162.644531 178.558594 C 161.886719 180.757812 160.710938 182.828125 159.222656 184.714844 L 159.171875 184.816406 L 159.066406 184.921875 L 159.066406 184.976562 C 157.578125 186.808594 155.75 188.40625 153.632812 189.714844 C 151.625 193.199219 150.449219 196.578125 150.082031 199.589844 C 149.847656 201.605469 150.03125 203.441406 150.550781 204.960938 C 151.074219 206.375 151.960938 207.5 153.214844 208.261719 C 153.582031 208.496094 154.027344 208.679688 154.46875 208.835938 C 154.417969 208.785156 154.417969 208.707031 154.367188 208.601562 C 153.609375 205.824219 154.183594 202.917969 155.617188 200.191406 C 157.082031 197.601562 159.378906 195.113281 162.121094 193.09375 C 163.480469 192.074219 164.941406 191.15625 166.535156 190.371094 C 166.40625 189.140625 166.167969 187.933594 165.882812 186.757812 C 163.714844 178.480469 167.839844 170.777344 170.53125 166.929688 C 165.855469 167.269531 157.132812 167.035156 151.023438 161.007812 C 150.1875 160.171875 149.246094 159.359375 148.253906 158.652344 C 146.792969 159.59375 145.25 160.433594 143.710938 161.089844 C 140.578125 162.449219 137.285156 163.261719 134.335938 163.15625 C 131.203125 163.105469 128.433594 162.136719 126.421875 160.066406 C 126.371094 160.015625 126.292969 159.9375 126.238281 159.882812 C 126.136719 160.355469 126.109375 160.824219 126.109375 161.296875 C 126.160156 162.765625 126.683594 164.074219 127.648438 165.253906 C 128.640625 166.484375 130.128906 167.503906 132.011719 168.316406 C 134.777344 169.546875 138.332031 170.203125 142.328125 170.203125 C 144.363281 168.710938 146.714844 167.898438 149.039062 167.53125 Z M 151.335938 182.460938 C 153.269531 182.828125 155.226562 182.878906 157.1875 182.589844 C 158.414062 180.992188 159.351562 179.265625 160.03125 177.433594 C 160.398438 176.304688 160.738281 175.125 160.921875 173.949219 L 160.921875 173.6875 L 160.972656 173.398438 L 160.972656 173.292969 L 161.023438 173.242188 L 161.023438 172.820312 L 161.078125 172.71875 L 161.078125 172.246094 L 161.128906 172.246094 L 161.128906 171.773438 L 161.023438 171.722656 L 160.972656 171.667969 L 160.761719 171.566406 L 160.710938 171.566406 L 160.605469 171.511719 C 159.117188 170.753906 157.472656 170.253906 155.828125 169.96875 C 153.871094 169.625 151.882812 169.601562 149.925781 169.835938 C 148.699219 171.433594 147.757812 173.164062 147.105469 174.996094 C 146.453125 176.722656 146.085938 178.609375 145.984375 180.445312 C 147.730469 181.542969 149.507812 182.144531 151.335938 182.460938 Z M 195.785156 199.667969 C 195.183594 200.742188 194.476562 201.738281 193.667969 202.679688 C 192.074219 204.566406 190.195312 206.113281 188.132812 207.371094 C 187.714844 207.605469 187.140625 207.605469 186.773438 207.316406 C 184.660156 206.085938 182.832031 204.539062 181.238281 202.65625 C 180.480469 201.710938 179.75 200.714844 179.121094 199.644531 C 178.886719 200.820312 178.78125 202 178.78125 203.257812 C 178.78125 206.6875 179.671875 209.9375 181.265625 212.738281 C 182.753906 215.359375 184.867188 217.636719 187.453125 219.261719 C 189.984375 217.609375 192.101562 215.359375 193.589844 212.738281 C 195.183594 209.910156 196.070312 206.6875 196.070312 203.257812 C 196.097656 202.027344 195.992188 200.847656 195.785156 199.667969 Z M 177.582031 195.53125 L 177.582031 195.503906 C 177.945312 194.484375 178.417969 193.433594 178.992188 192.492188 L 179.042969 192.386719 L 179.097656 192.335938 L 179.148438 192.28125 L 179.199219 192.152344 L 179.253906 192.046875 L 179.304688 191.996094 L 179.304688 191.941406 C 180.792969 189.453125 182.777344 187.332031 185.128906 185.65625 L 185.234375 185.550781 L 185.335938 185.5 L 185.441406 185.394531 L 185.546875 185.339844 L 185.652344 185.289062 L 185.703125 185.238281 L 185.753906 185.183594 L 185.859375 185.132812 L 185.964844 185.027344 L 186.070312 184.976562 L 186.171875 184.921875 L 186.171875 184.871094 L 186.277344 184.871094 L 186.382812 184.765625 L 186.488281 184.714844 L 186.539062 184.660156 L 186.589844 184.660156 L 186.695312 184.554688 L 186.800781 184.503906 L 186.851562 184.503906 L 186.90625 184.449219 L 187.007812 184.398438 L 187.0625 184.347656 L 187.113281 184.347656 L 187.164062 184.292969 L 187.269531 184.292969 L 187.269531 184.242188 L 187.425781 184.242188 L 187.480469 184.1875 L 188.105469 184.1875 L 188.105469 184.242188 L 188.261719 184.242188 L 188.261719 184.292969 L 188.367188 184.292969 L 188.417969 184.347656 L 188.523438 184.347656 L 188.523438 184.398438 L 188.707031 184.503906 L 188.835938 184.609375 L 188.941406 184.660156 L 188.992188 184.714844 C 189.097656 184.765625 189.175781 184.816406 189.28125 184.894531 L 189.332031 184.894531 L 189.4375 184.949219 L 189.4375 185 L 189.542969 185.054688 L 189.648438 185.105469 L 189.75 185.160156 L 189.804688 185.210938 L 189.855469 185.261719 L 189.960938 185.316406 L 190.0625 185.421875 L 190.117188 185.421875 L 190.167969 185.472656 L 190.273438 185.523438 L 190.378906 185.628906 L 190.429688 185.683594 L 190.480469 185.683594 L 190.585938 185.785156 L 190.691406 185.839844 L 190.820312 185.96875 L 190.875 185.96875 L 190.925781 186.023438 C 193.121094 187.726562 194.949219 189.820312 196.359375 192.28125 L 196.359375 192.335938 L 196.410156 192.386719 L 196.460938 192.492188 L 196.515625 192.597656 L 196.566406 192.648438 L 196.671875 192.78125 C 197.140625 193.671875 197.558594 194.5625 197.898438 195.503906 L 197.949219 195.554688 C 198.785156 197.757812 199.257812 200.167969 199.359375 202.65625 C 201.320312 206.136719 203.671875 208.863281 206.097656 210.644531 C 207.742188 211.875 209.390625 212.609375 210.929688 212.894531 C 212.417969 213.183594 213.828125 213 215.109375 212.242188 C 215.472656 212.058594 215.917969 211.769531 216.230469 211.429688 C 216.179688 211.429688 216.101562 211.375 215.996094 211.375 C 213.175781 210.667969 210.980469 208.703125 209.335938 206.058594 C 207.847656 203.519531 206.855469 200.269531 206.4375 196.839844 C 206.253906 195.136719 206.203125 193.410156 206.308594 191.679688 C 205.183594 191.207031 204.0625 190.789062 202.886719 190.449219 C 194.6875 188.144531 190.089844 180.730469 188.078125 176.488281 C 186.070312 180.730469 181.472656 188.144531 173.21875 190.449219 C 172.046875 190.789062 170.921875 191.207031 169.800781 191.679688 C 169.902344 193.410156 169.851562 195.164062 169.667969 196.839844 C 169.304688 200.269531 168.3125 203.519531 166.769531 206.058594 C 165.125 208.679688 162.929688 210.667969 160.109375 211.375 C 160.007812 211.375 159.980469 211.429688 159.875 211.429688 C 160.242188 211.769531 160.632812 212.03125 161 212.242188 C 162.253906 213 163.664062 213.183594 165.175781 212.894531 C 166.71875 212.609375 168.414062 211.875 170.007812 210.644531 C 172.4375 208.863281 174.789062 206.136719 176.796875 202.65625 C 176.222656 200.140625 176.746094 197.757812 177.582031 195.53125 Z M 191.65625 201.003906 C 192.886719 199.511719 193.902344 197.808594 194.710938 195.976562 C 194.347656 195.085938 193.902344 194.246094 193.460938 193.488281 L 193.460938 193.433594 L 193.40625 193.382812 L 193.355469 193.277344 L 193.300781 193.226562 L 193.199219 193.015625 L 193.144531 192.964844 L 193.09375 192.859375 C 191.789062 190.84375 190.144531 189.0625 188.183594 187.648438 C 188.054688 187.542969 187.949219 187.515625 187.820312 187.410156 C 187.714844 187.304688 187.582031 187.28125 187.480469 187.175781 C 187.347656 187.28125 187.242188 187.304688 187.113281 187.410156 C 186.984375 187.515625 186.878906 187.542969 186.773438 187.648438 L 186.722656 187.648438 C 184.710938 189.113281 182.960938 190.945312 181.65625 193.09375 L 181.601562 193.199219 L 181.550781 193.25 L 181.5 193.355469 L 181.5 193.410156 L 181.445312 193.460938 C 180.976562 194.222656 180.558594 195.058594 180.21875 195.949219 C 180.976562 197.78125 181.996094 199.484375 183.273438 200.976562 C 184.449219 202.394531 185.859375 203.648438 187.453125 204.644531 C 189.019531 203.675781 190.429688 202.394531 191.65625 201.003906 Z M 228.664062 170.960938 C 229.261719 172.035156 229.785156 173.164062 230.203125 174.339844 C 231.039062 176.59375 231.457031 179.03125 231.507812 181.492188 C 231.507812 181.964844 231.222656 182.433594 230.804688 182.617188 C 228.6875 183.847656 226.390625 184.6875 224.015625 185.105469 C 222.785156 185.289062 221.585938 185.445312 220.359375 185.445312 C 221.167969 186.152344 222.054688 186.808594 223.019531 187.382812 C 223.074219 187.382812 223.074219 187.4375 223.125 187.4375 L 223.308594 187.566406 C 226.3125 189.269531 229.550781 190.109375 232.734375 190.160156 C 235.792969 190.160156 238.820312 189.453125 241.511719 188.039062 C 241.378906 185.027344 240.492188 182.066406 238.925781 179.449219 C 237.332031 176.671875 234.980469 174.289062 232.03125 172.535156 L 231.925781 172.535156 C 230.90625 171.851562 229.785156 171.382812 228.664062 170.960938 Z M 215.316406 183.847656 C 215.265625 183.796875 215.214844 183.71875 215.132812 183.613281 C 214.011719 181.964844 213.070312 180.234375 212.417969 178.347656 C 211.714844 176.460938 211.296875 174.5 211.164062 172.480469 L 211.164062 171.328125 L 211.113281 171.199219 L 211.113281 171.144531 L 211.164062 171.144531 L 211.164062 170.832031 L 211.21875 170.777344 L 211.21875 170.675781 L 211.269531 170.675781 L 211.269531 170.621094 L 211.320312 170.570312 L 211.320312 170.515625 L 211.375 170.515625 L 211.375 170.414062 L 211.425781 170.414062 L 211.425781 170.359375 L 211.53125 170.359375 L 211.53125 170.308594 L 211.582031 170.308594 L 211.582031 170.253906 L 211.636719 170.253906 L 211.636719 170.203125 L 211.6875 170.203125 L 211.6875 170.148438 C 211.738281 170.097656 211.792969 170.046875 211.871094 170.046875 C 212 169.941406 212.210938 169.863281 212.339844 169.757812 L 212.472656 169.703125 L 212.574219 169.652344 L 212.628906 169.601562 L 212.679688 169.601562 L 212.785156 169.496094 L 212.835938 169.496094 L 212.890625 169.441406 L 212.992188 169.390625 L 213.125 169.339844 L 213.226562 169.285156 L 213.332031 169.234375 L 213.4375 169.179688 L 213.488281 169.179688 C 215.1875 168.371094 216.910156 167.820312 218.738281 167.480469 C 220.75 167.136719 222.863281 167.058594 224.980469 167.296875 C 225.214844 167.347656 225.503906 167.398438 225.789062 167.398438 L 225.921875 167.453125 L 226.023438 167.453125 C 228.375 167.820312 230.699219 168.632812 232.917969 169.808594 C 236.914062 169.808594 240.414062 169.15625 243.183594 167.925781 C 245.0625 167.113281 246.550781 166.089844 247.59375 164.859375 C 248.535156 163.679688 249.085938 162.371094 249.085938 160.90625 C 249.085938 160.433594 249.03125 159.960938 248.953125 159.488281 C 248.902344 159.542969 248.847656 159.621094 248.824219 159.671875 C 246.761719 161.742188 243.992188 162.738281 240.910156 162.765625 C 237.90625 162.867188 234.667969 162.058594 231.484375 160.695312 C 229.941406 160.039062 228.425781 159.203125 226.9375 158.257812 C 225.945312 158.964844 225.058594 159.753906 224.171875 160.617188 C 218.085938 166.640625 209.363281 166.875 204.664062 166.535156 C 207.328125 170.386719 211.453125 178.085938 209.335938 186.363281 C 208.996094 187.542969 208.816406 188.773438 208.683594 189.976562 C 210.226562 190.789062 211.738281 191.679688 213.097656 192.703125 C 215.867188 194.71875 218.164062 197.207031 219.574219 199.800781 C 221.0625 202.523438 221.636719 205.429688 220.828125 208.207031 C 220.828125 208.3125 220.777344 208.390625 220.722656 208.441406 C 221.191406 208.3125 221.609375 208.101562 222.027344 207.867188 C 223.257812 207.105469 224.144531 205.980469 224.640625 204.566406 C 225.214844 203.074219 225.34375 201.242188 225.109375 199.199219 C 224.769531 196.183594 223.570312 192.804688 221.585938 189.324219 C 219.417969 188.011719 217.589844 186.363281 216.101562 184.53125 L 215.996094 184.425781 L 215.945312 184.320312 L 215.839844 184.214844 L 215.789062 184.109375 L 215.734375 184.058594 L 215.683594 184.007812 L 215.632812 183.902344 L 215.527344 183.796875 L 215.527344 183.980469 L 215.394531 183.875 L 215.394531 183.847656 Z M 227.722656 175.230469 C 227.070312 173.398438 226.128906 171.667969 224.902344 170.070312 C 222.941406 169.835938 220.957031 169.886719 219.050781 170.203125 C 217.589844 170.4375 216.207031 170.859375 214.875 171.460938 L 214.769531 171.460938 L 214.664062 171.511719 C 214.558594 171.566406 214.480469 171.617188 214.378906 171.644531 L 214.273438 171.695312 L 214.21875 171.695312 L 214.167969 171.75 L 214.117188 171.800781 L 214.011719 171.800781 L 213.960938 171.851562 L 213.90625 171.851562 L 213.855469 171.90625 L 213.804688 171.90625 L 213.671875 172.011719 L 213.671875 172.167969 L 213.722656 172.273438 L 213.722656 172.902344 L 213.777344 172.953125 L 213.777344 173.371094 L 213.828125 173.476562 L 213.828125 173.632812 C 213.828125 173.765625 213.882812 173.871094 213.882812 174 L 213.882812 174.054688 L 213.933594 174.15625 C 214.117188 175.335938 214.402344 176.515625 214.820312 177.640625 C 215.472656 179.476562 216.414062 181.203125 217.640625 182.800781 C 219.601562 183.089844 221.585938 183.035156 223.492188 182.671875 C 225.371094 182.328125 227.148438 181.726562 228.792969 180.890625 C 228.765625 178.847656 228.402344 176.988281 227.722656 175.230469 Z M 220.382812 128.035156 C 221.609375 128.035156 222.8125 128.164062 224.039062 128.375 C 226.441406 128.792969 228.714844 129.632812 230.828125 130.863281 C 231.300781 131.097656 231.535156 131.570312 231.535156 132.09375 C 231.484375 134.503906 231.066406 136.886719 230.230469 139.140625 C 229.8125 140.316406 229.289062 141.445312 228.6875 142.519531 C 229.8125 142.097656 230.933594 141.628906 231.980469 140.972656 C 234.980469 139.269531 237.332031 136.835938 238.953125 134.058594 C 240.492188 131.4375 241.378906 128.453125 241.535156 125.464844 C 238.875 124.050781 235.816406 123.34375 232.761719 123.34375 C 229.578125 123.398438 226.339844 124.234375 223.335938 125.9375 L 223.152344 126.070312 C 223.101562 126.070312 223.101562 126.121094 223.046875 126.121094 C 222.054688 126.671875 221.167969 127.351562 220.382812 128.035156 Z M 225.867188 145.949219 L 225.816406 145.949219 C 223.386719 146.316406 220.933594 146.316406 218.609375 145.898438 C 216.675781 145.53125 214.820312 144.902344 213.019531 144.0625 L 212.890625 144.011719 L 212.757812 143.90625 L 212.679688 143.90625 L 212.574219 143.851562 L 212.472656 143.75 L 212.367188 143.695312 L 212.234375 143.644531 L 212.132812 143.589844 L 212.027344 143.539062 L 211.894531 143.433594 L 211.84375 143.382812 L 211.738281 143.328125 L 211.6875 143.328125 L 211.636719 143.277344 L 211.582031 143.277344 L 211.582031 143.226562 L 211.53125 143.226562 L 211.53125 143.171875 L 211.480469 143.171875 L 211.425781 143.121094 L 211.375 143.066406 L 211.320312 143.015625 L 211.269531 142.964844 L 211.269531 142.910156 L 211.21875 142.910156 L 211.21875 142.859375 L 211.164062 142.804688 L 211.164062 142.753906 L 211.113281 142.699219 L 211.113281 142.597656 L 211.0625 142.597656 L 211.0625 142.492188 L 211.007812 142.4375 L 211.007812 142.175781 L 210.957031 142.125 L 210.957031 141.96875 L 211.007812 141.785156 L 211.007812 141.730469 C 211.0625 139.425781 211.480469 137.070312 212.261719 134.921875 C 213.070312 132.722656 214.195312 130.652344 215.683594 128.765625 L 215.734375 128.664062 L 215.839844 128.558594 L 215.839844 128.503906 C 217.328125 126.671875 219.15625 125.074219 221.324219 123.765625 C 223.28125 120.28125 224.511719 116.902344 224.847656 113.890625 C 225.085938 111.871094 224.953125 110.039062 224.378906 108.519531 C 223.855469 107.105469 222.96875 105.980469 221.769531 105.21875 C 221.351562 104.984375 220.933594 104.800781 220.460938 104.644531 C 220.515625 104.695312 220.566406 104.773438 220.566406 104.878906 C 221.375 107.65625 220.800781 110.5625 219.3125 113.289062 C 217.902344 115.878906 215.605469 118.367188 212.835938 120.386719 C 211.480469 121.40625 209.988281 122.324219 208.421875 123.109375 C 208.554688 124.339844 208.761719 125.546875 209.074219 126.722656 C 211.191406 135 207.066406 142.699219 204.402344 146.550781 C 209.074219 146.210938 217.796875 146.445312 223.910156 152.472656 C 224.796875 153.308594 225.683594 154.121094 226.675781 154.828125 C 228.164062 153.886719 229.679688 153.046875 231.222656 152.390625 C 234.40625 151.03125 237.644531 150.21875 240.648438 150.324219 C 243.730469 150.375 246.5 151.34375 248.507812 153.414062 C 248.613281 153.464844 248.640625 153.542969 248.691406 153.597656 C 248.796875 153.125 248.824219 152.652344 248.824219 152.183594 C 248.824219 150.714844 248.25 149.40625 247.335938 148.226562 C 246.316406 146.996094 244.800781 145.976562 242.921875 145.164062 C 240.152344 143.933594 236.652344 143.277344 232.65625 143.277344 C 230.464844 144.457031 228.113281 145.242188 225.816406 145.632812 L 225.867188 145.632812 Z M 223.570312 131.019531 C 221.636719 130.652344 219.679688 130.601562 217.71875 130.886719 C 216.492188 132.484375 215.550781 134.214844 214.898438 136.046875 C 214.480469 137.175781 214.195312 138.351562 214.011719 139.53125 L 213.960938 139.636719 L 213.960938 139.792969 L 213.90625 140.082031 L 213.90625 140.238281 L 213.855469 140.292969 L 213.855469 140.761719 L 213.804688 140.867188 L 213.804688 141.445312 L 213.75 141.546875 L 213.75 141.707031 L 213.960938 141.808594 L 214.011719 141.863281 L 214.117188 141.914062 L 214.21875 141.914062 L 214.273438 141.96875 C 215.8125 142.726562 217.40625 143.226562 219.105469 143.511719 C 221.035156 143.851562 222.996094 143.878906 224.953125 143.644531 C 226.179688 142.046875 227.121094 140.316406 227.773438 138.484375 C 228.425781 136.753906 228.792969 134.871094 228.898438 133.035156 C 227.226562 131.9375 225.425781 131.332031 223.570312 131.019531 Z M 179.121094 113.8125 C 179.722656 112.738281 180.480469 111.742188 181.238281 110.800781 C 182.832031 108.914062 184.710938 107.367188 186.773438 106.109375 C 187.242188 105.875 187.765625 105.875 188.132812 106.164062 C 190.246094 107.394531 192.128906 108.992188 193.667969 110.824219 C 194.476562 111.769531 195.15625 112.761719 195.785156 113.835938 C 196.019531 112.660156 196.125 111.480469 196.125 110.222656 C 196.125 106.792969 195.234375 103.542969 193.640625 100.742188 C 192.152344 98.121094 190.039062 95.84375 187.503906 94.21875 C 184.917969 95.871094 182.832031 98.121094 181.316406 100.742188 C 179.722656 103.570312 178.835938 106.792969 178.835938 110.222656 C 178.808594 111.453125 178.914062 112.632812 179.121094 113.8125 Z M 197.375 117.949219 L 197.324219 118 C 196.957031 119.023438 196.488281 120.070312 195.914062 121.015625 L 195.808594 121.144531 L 195.808594 121.199219 L 195.757812 121.328125 L 195.652344 121.433594 L 195.652344 121.484375 L 195.601562 121.539062 L 195.546875 121.644531 C 194.058594 124.132812 192.023438 126.253906 189.699219 127.929688 L 189.515625 128.058594 L 189.410156 128.113281 L 189.308594 128.164062 L 189.203125 128.269531 L 189.097656 128.320312 L 188.992188 128.425781 L 188.890625 128.480469 L 188.785156 128.53125 L 188.785156 128.582031 L 188.679688 128.582031 L 188.628906 128.6875 L 188.574219 128.6875 L 188.472656 128.742188 L 188.417969 128.792969 L 188.367188 128.792969 L 188.261719 128.898438 L 188.15625 128.949219 L 188.105469 128.949219 L 188.054688 129.003906 L 187.949219 129.054688 L 187.898438 129.105469 L 187.84375 129.105469 L 187.84375 129.160156 L 187.6875 129.160156 L 187.6875 129.210938 L 187.53125 129.210938 L 187.53125 129.265625 L 187.425781 129.265625 L 187.609375 129.265625 L 187.191406 129.265625 L 187.140625 129.210938 L 186.984375 129.210938 L 186.984375 129.160156 L 186.878906 129.160156 L 186.828125 129.105469 L 186.773438 129.054688 L 186.667969 129.003906 L 186.617188 128.949219 L 186.566406 128.949219 L 186.460938 128.84375 L 186.410156 128.84375 L 186.355469 128.792969 L 186.25 128.742188 L 186.148438 128.6875 L 186.09375 128.636719 L 186.042969 128.582031 L 185.914062 128.53125 L 185.808594 128.480469 L 185.808594 128.425781 L 185.703125 128.375 L 185.652344 128.320312 L 185.597656 128.320312 L 185.496094 128.269531 L 185.496094 128.191406 L 185.390625 128.136719 L 185.285156 128.085938 L 185.128906 127.929688 C 184.945312 127.824219 184.789062 127.691406 184.660156 127.589844 C 182.464844 125.9375 180.636719 123.921875 179.175781 121.5625 L 179.121094 121.460938 L 179.019531 121.25 L 178.964844 121.117188 L 178.914062 121.066406 L 178.859375 121.015625 L 178.808594 120.910156 C 178.234375 119.964844 177.789062 118.945312 177.398438 117.898438 L 177.398438 117.84375 C 176.5625 115.644531 176.039062 113.234375 175.988281 110.746094 C 173.976562 107.261719 171.628906 104.539062 169.199219 102.757812 C 167.605469 101.527344 165.910156 100.792969 164.367188 100.503906 C 162.878906 100.21875 161.46875 100.402344 160.1875 101.160156 C 159.824219 101.34375 159.433594 101.632812 159.066406 101.972656 C 159.171875 101.972656 159.195312 102.023438 159.300781 102.023438 C 162.121094 102.730469 164.316406 104.695312 165.960938 107.339844 C 167.5 109.882812 168.492188 113.128906 168.859375 116.5625 C 169.042969 118.265625 169.09375 119.992188 168.988281 121.722656 C 170.113281 122.191406 171.234375 122.613281 172.410156 122.953125 C 180.664062 125.257812 185.257812 132.667969 187.269531 136.914062 C 189.28125 132.667969 193.878906 125.257812 202.078125 122.953125 C 203.253906 122.613281 204.375 122.191406 205.5 121.722656 C 205.394531 119.992188 205.445312 118.238281 205.628906 116.5625 C 206.046875 113.128906 207.039062 109.882812 208.527344 107.339844 C 210.171875 104.722656 212.367188 102.730469 215.1875 102.023438 C 215.292969 102.023438 215.371094 101.972656 215.421875 101.972656 C 215.082031 101.632812 214.664062 101.371094 214.300781 101.160156 C 213.046875 100.402344 211.636719 100.21875 210.121094 100.503906 C 208.578125 100.792969 206.933594 101.527344 205.289062 102.757812 C 202.859375 104.539062 200.511719 107.261719 198.550781 110.746094 C 198.683594 113.339844 198.210938 115.722656 197.375 117.949219 Z M 183.300781 112.476562 C 182.046875 113.96875 181.003906 115.671875 180.246094 117.503906 C 180.585938 118.394531 181.003906 119.234375 181.472656 119.992188 L 181.523438 120.042969 L 181.523438 120.097656 L 181.578125 120.203125 L 181.628906 120.253906 L 181.679688 120.359375 L 181.734375 120.464844 C 183.039062 122.585938 184.789062 124.367188 186.746094 125.832031 L 186.800781 125.832031 C 186.90625 125.9375 186.984375 125.964844 187.140625 126.070312 C 187.269531 126.175781 187.375 126.199219 187.503906 126.304688 C 187.609375 126.199219 187.738281 126.175781 187.84375 126.070312 C 187.976562 125.964844 188.078125 125.9375 188.210938 125.832031 C 190.167969 124.367188 191.917969 122.585938 193.222656 120.464844 L 193.277344 120.359375 L 193.328125 120.253906 L 193.382812 120.203125 L 193.433594 120.097656 L 193.484375 120.042969 L 193.484375 119.992188 C 193.957031 119.234375 194.375 118.394531 194.738281 117.503906 C 193.929688 115.671875 192.910156 113.96875 191.683594 112.476562 C 190.457031 111.0625 189.070312 109.804688 187.503906 108.808594 C 185.886719 109.804688 184.476562 111.085938 183.300781 112.476562 Z M 187.480469 146.65625 C 190.246094 146.65625 192.78125 147.78125 194.554688 149.617188 C 196.382812 151.449219 197.507812 153.9375 197.507812 156.765625 C 197.507812 159.542969 196.382812 162.03125 194.554688 163.863281 C 192.78125 165.699219 190.246094 166.824219 187.480469 166.824219 C 184.660156 166.824219 182.179688 165.699219 180.351562 163.863281 C 178.523438 162.03125 177.398438 159.542969 177.398438 156.765625 C 177.398438 153.9375 178.523438 151.449219 180.351562 149.617188 C 182.179688 147.78125 184.660156 146.65625 187.480469 146.65625 Z M 192.675781 151.5 C 191.371094 150.140625 189.488281 149.300781 187.480469 149.300781 C 185.414062 149.300781 183.535156 150.140625 182.230469 151.5 C 180.871094 152.8125 180.035156 154.695312 180.035156 156.765625 C 180.035156 158.78125 180.871094 160.667969 182.230469 161.976562 C 183.535156 163.339844 185.414062 164.179688 187.480469 164.179688 C 189.488281 164.179688 191.371094 163.339844 192.675781 161.976562 C 194.035156 160.667969 194.871094 158.78125 194.871094 156.765625 C 194.871094 154.695312 194.035156 152.8125 192.675781 151.5 Z M 166.613281 120.515625 C 166.613281 119.285156 166.5625 118.082031 166.429688 116.902344 C 166.066406 113.835938 165.203125 110.984375 163.898438 108.78125 C 162.644531 106.714844 160.945312 105.21875 158.832031 104.695312 C 158.359375 104.566406 157.890625 104.511719 157.34375 104.460938 C 157.109375 104.933594 156.925781 105.402344 156.820312 105.875 C 156.21875 107.945312 156.691406 110.144531 157.839844 112.316406 C 159.066406 114.570312 161.078125 116.746094 163.558594 118.578125 C 164.523438 119.257812 165.542969 119.914062 166.613281 120.515625 Z M 149.507812 122.089844 C 148.332031 119.417969 147.574219 116.824219 147.3125 114.414062 C 147.027344 111.976562 147.261719 109.75 147.914062 107.839844 C 148.671875 105.875 149.925781 104.277344 151.703125 103.175781 C 152.875 102.523438 154.234375 102.050781 155.828125 101.867188 L 155.878906 101.867188 L 155.878906 101.816406 C 156.871094 100.558594 157.941406 99.613281 159.066406 98.90625 C 160.894531 97.914062 162.90625 97.652344 164.96875 97.964844 C 166.980469 98.332031 168.988281 99.273438 170.972656 100.742188 C 172.90625 102.15625 174.761719 104.066406 176.457031 106.425781 C 176.929688 103.9375 177.765625 101.527344 178.992188 99.378906 C 180.871094 96.078125 183.535156 93.355469 186.773438 91.441406 C 187.242188 91.207031 187.765625 91.207031 188.132812 91.496094 C 191.371094 93.355469 194.085938 96.132812 195.914062 99.378906 C 197.140625 101.554688 198.03125 103.9375 198.449219 106.425781 C 200.144531 104.066406 202 102.15625 203.929688 100.742188 C 205.890625 99.273438 207.953125 98.332031 209.9375 97.964844 C 212 97.625 214.011719 97.914062 215.839844 98.90625 C 217.015625 99.613281 218.085938 100.558594 219.027344 101.816406 L 219.078125 101.867188 L 219.128906 101.867188 C 220.671875 102.050781 222.082031 102.523438 223.203125 103.175781 C 225.03125 104.25 226.257812 105.847656 226.992188 107.839844 C 227.695312 109.777344 227.878906 111.976562 227.589844 114.414062 C 227.304688 116.824219 226.597656 119.390625 225.398438 122.089844 C 227.800781 121.199219 230.28125 120.777344 232.761719 120.726562 C 236.550781 120.726562 240.257812 121.667969 243.546875 123.554688 C 243.964844 123.789062 244.199219 124.261719 244.199219 124.785156 C 244.148438 128.503906 243.128906 132.222656 241.199219 135.445312 C 239.96875 137.566406 238.351562 139.480469 236.367188 141.128906 C 239.265625 141.46875 241.902344 142.125 244.097656 143.066406 C 246.289062 144.0625 248.117188 145.320312 249.449219 146.867188 C 250.808594 148.515625 251.566406 150.402344 251.566406 152.496094 C 251.617188 153.804688 251.277344 155.222656 250.675781 156.738281 L 250.675781 156.792969 C 251.277344 158.285156 251.617188 159.699219 251.566406 161.035156 C 251.566406 163.15625 250.808594 165.042969 249.449219 166.667969 C 248.144531 168.210938 246.316406 169.496094 244.097656 170.464844 C 241.902344 171.40625 239.265625 172.0625 236.367188 172.402344 C 238.324219 174.054688 239.96875 175.964844 241.199219 178.085938 C 243.128906 181.386719 244.148438 185.078125 244.199219 188.851562 C 244.199219 189.324219 243.914062 189.792969 243.546875 189.976562 C 240.257812 191.863281 236.574219 192.804688 232.761719 192.804688 C 230.28125 192.804688 227.800781 192.335938 225.398438 191.445312 C 226.625 194.117188 227.332031 196.710938 227.589844 199.117188 C 227.878906 201.554688 227.695312 203.78125 226.992188 205.691406 C 226.234375 207.65625 225.03125 209.253906 223.203125 210.355469 C 222.082031 211.011719 220.671875 211.480469 219.128906 211.664062 L 219.078125 211.664062 L 219.027344 211.71875 C 218.085938 212.972656 217.015625 213.917969 215.839844 214.625 C 214.011719 215.621094 212 215.882812 209.9375 215.566406 C 207.980469 215.199219 205.917969 214.257812 203.929688 212.789062 C 202 211.375 200.144531 209.464844 198.449219 207.105469 C 198.03125 209.59375 197.140625 212.003906 195.914062 214.152344 C 194.035156 217.453125 191.371094 220.175781 188.132812 222.089844 C 187.714844 222.324219 187.140625 222.324219 186.773438 222.035156 C 183.535156 220.152344 180.871094 217.375 178.992188 214.152344 C 177.765625 211.980469 176.929688 209.59375 176.457031 207.105469 C 174.761719 209.464844 172.90625 211.375 170.972656 212.789062 C 169.015625 214.257812 166.980469 215.199219 164.96875 215.566406 C 162.90625 215.90625 160.894531 215.621094 159.066406 214.625 C 157.941406 213.917969 156.871094 212.972656 155.878906 211.71875 L 155.878906 211.664062 L 155.828125 211.664062 C 154.234375 211.480469 152.875 211.011719 151.703125 210.355469 C 149.925781 209.28125 148.644531 207.683594 147.914062 205.691406 C 147.261719 203.753906 147.027344 201.554688 147.3125 199.117188 C 147.601562 196.710938 148.332031 194.140625 149.507812 191.445312 C 147.105469 192.335938 144.625 192.804688 142.144531 192.804688 C 138.382812 192.804688 134.648438 191.863281 131.410156 189.976562 C 130.941406 189.742188 130.707031 189.269531 130.707031 188.746094 C 130.757812 185.027344 131.777344 181.308594 133.707031 178.085938 C 134.9375 175.964844 136.554688 174.054688 138.539062 172.402344 C 135.640625 172.0625 133.003906 171.40625 130.863281 170.464844 C 128.617188 169.46875 126.789062 168.210938 125.484375 166.667969 C 124.175781 165.015625 123.367188 163.128906 123.367188 161.035156 C 123.367188 159.726562 123.65625 158.3125 124.253906 156.792969 L 124.308594 156.792969 L 124.253906 156.738281 C 123.65625 155.222656 123.367188 153.804688 123.367188 152.496094 C 123.367188 150.375 124.175781 148.488281 125.484375 146.867188 C 126.789062 145.320312 128.617188 144.035156 130.863281 143.066406 C 133.03125 142.125 135.640625 141.46875 138.539062 141.128906 C 136.582031 139.480469 134.9375 137.566406 133.707031 135.445312 C 131.777344 132.144531 130.757812 128.453125 130.707031 124.679688 C 130.707031 124.210938 130.992188 123.738281 131.410156 123.554688 C 134.648438 121.667969 138.382812 120.726562 142.144531 120.726562 C 144.652344 120.753906 147.132812 121.171875 149.507812 122.089844 Z M 168.910156 124.574219 C 168.78125 125.597656 168.570312 126.644531 168.3125 127.640625 C 166.246094 135.8125 171.078125 143.433594 173.324219 146.445312 C 173.847656 145.6875 174.449219 144.980469 175.101562 144.324219 C 177.816406 141.601562 181.523438 139.714844 185.597656 139.296875 C 184.136719 135.863281 179.984375 127.875 171.914062 125.570312 C 170.894531 125.285156 169.902344 124.941406 168.910156 124.574219 Z M 171.445312 149.617188 C 167.734375 149.144531 158.753906 148.777344 152.746094 154.644531 C 151.988281 155.402344 151.207031 156.113281 150.394531 156.765625 C 151.207031 157.367188 151.988281 158.074219 152.746094 158.835938 C 158.753906 164.703125 167.734375 164.335938 171.445312 163.863281 C 170.503906 161.691406 169.957031 159.253906 169.957031 156.765625 C 169.957031 154.226562 170.503906 151.789062 171.445312 149.617188 Z M 127.257812 156.765625 C 127.546875 157.183594 127.859375 157.578125 128.199219 157.945312 C 129.6875 159.488281 131.855469 160.199219 134.28125 160.25 C 136.867188 160.300781 139.714844 159.648438 142.535156 158.417969 C 143.660156 157.890625 144.703125 157.394531 145.773438 156.765625 C 144.703125 156.113281 143.660156 155.585938 142.535156 155.0625 C 139.714844 153.832031 136.867188 153.179688 134.28125 153.230469 C 131.855469 153.28125 129.6875 153.988281 128.199219 155.535156 C 127.859375 155.929688 127.546875 156.292969 127.257812 156.765625 Z M 173.324219 167.058594 C 171.078125 170.070312 166.246094 177.695312 168.3125 185.867188 C 168.597656 186.859375 168.78125 187.882812 168.910156 188.929688 C 169.902344 188.5625 170.871094 188.222656 171.914062 187.933594 C 179.984375 185.628906 184.136719 177.640625 185.597656 174.210938 C 181.523438 173.792969 177.816406 171.90625 175.101562 169.179688 C 174.449219 168.527344 173.847656 167.820312 173.324219 167.058594 Z M 157.34375 209.019531 C 157.917969 208.96875 158.359375 208.914062 158.832031 208.785156 C 160.945312 208.261719 162.617188 206.765625 163.898438 204.699219 C 165.203125 202.496094 166.066406 199.617188 166.429688 196.578125 C 166.5625 195.398438 166.613281 194.167969 166.613281 192.964844 C 165.542969 193.566406 164.496094 194.222656 163.558594 194.929688 C 161.078125 196.761719 159.066406 198.933594 157.839844 201.1875 C 156.664062 203.363281 156.195312 205.5625 156.820312 207.632812 C 156.925781 208.101562 157.109375 208.546875 157.34375 209.019531 Z M 189.308594 174.210938 C 190.769531 177.640625 194.921875 185.628906 202.992188 187.933594 C 204.007812 188.222656 205.003906 188.539062 205.996094 188.929688 C 206.125 187.910156 206.359375 186.859375 206.59375 185.867188 C 208.65625 177.695312 203.828125 170.070312 201.582031 167.058594 C 201.058594 167.820312 200.457031 168.527344 199.859375 169.179688 C 197.089844 171.90625 193.433594 173.792969 189.308594 174.210938 Z M 217.5625 209.019531 C 217.796875 208.546875 217.980469 208.078125 218.136719 207.605469 C 218.710938 205.535156 218.242188 203.335938 217.066406 201.160156 C 215.839844 198.910156 213.828125 196.734375 211.347656 194.902344 C 210.40625 194.195312 209.390625 193.539062 208.34375 192.9375 C 208.292969 194.167969 208.398438 195.375 208.476562 196.550781 C 208.839844 199.617188 209.703125 202.472656 211.0625 204.671875 C 212.289062 206.742188 213.960938 208.234375 216.074219 208.757812 C 216.519531 208.941406 217.042969 208.992188 217.5625 209.019531 Z M 203.460938 163.863281 C 207.167969 164.335938 216.152344 164.703125 222.160156 158.835938 C 222.917969 158.074219 223.699219 157.367188 224.5625 156.765625 C 223.726562 156.113281 222.917969 155.402344 222.160156 154.644531 C 216.152344 148.777344 207.167969 149.144531 203.460938 149.617188 C 204.453125 151.789062 204.949219 154.226562 204.949219 156.765625 C 204.949219 159.253906 204.453125 161.691406 203.460938 163.863281 Z M 247.648438 156.765625 C 247.359375 156.292969 247.046875 155.929688 246.707031 155.535156 C 245.21875 153.988281 243.050781 153.28125 240.621094 153.230469 C 238.089844 153.179688 235.191406 153.832031 232.371094 155.0625 C 231.300781 155.585938 230.203125 156.085938 229.183594 156.765625 C 230.203125 157.367188 231.300781 157.890625 232.371094 158.417969 C 235.191406 159.648438 238.089844 160.300781 240.621094 160.25 C 243.050781 160.199219 245.21875 159.488281 246.707031 157.945312 C 247.046875 157.550781 247.359375 157.183594 247.648438 156.765625 Z M 217.5625 104.460938 C 217.042969 104.511719 216.542969 104.566406 216.074219 104.695312 C 213.960938 105.21875 212.289062 106.714844 211.0625 108.78125 C 209.703125 110.984375 208.867188 113.863281 208.476562 116.902344 C 208.371094 118.082031 208.292969 119.3125 208.34375 120.515625 C 209.363281 119.914062 210.40625 119.257812 211.347656 118.550781 C 213.828125 116.71875 215.839844 114.542969 217.066406 112.292969 C 218.242188 110.117188 218.710938 107.917969 218.136719 105.847656 C 217.980469 105.378906 217.796875 104.933594 217.5625 104.460938 Z M 197.976562 146.183594 C 195.261719 143.511719 191.554688 141.863281 187.480469 141.863281 C 183.351562 141.863281 179.644531 143.511719 176.980469 146.183594 C 174.265625 148.910156 172.621094 152.628906 172.621094 156.765625 C 172.621094 160.851562 174.265625 164.570312 176.980469 167.296875 C 179.644531 169.96875 183.351562 171.617188 187.480469 171.617188 C 191.554688 171.617188 195.261719 169.96875 197.976562 167.296875 C 200.640625 164.570312 202.339844 160.851562 202.339844 156.765625 C 202.339844 152.628906 200.640625 148.910156 197.976562 146.183594 Z M 197.976562 146.183594 " fill-opacity="1" fill-rule="nonzero"/></g><g fill="#221c16" fill-opacity="1"><g transform="translate(66.160357, 264.876647)"><g><path d="M 1.71875 0 L 1.71875 -0.578125 C 2.40625 -0.796875 2.851562 -1.253906 3.0625 -1.953125 C 3.269531 -2.648438 3.375 -3.738281 3.375 -5.21875 L 3.375 -21.078125 C 3.375 -22.753906 3.269531 -24.070312 3.0625 -25.03125 C 2.851562 -25.988281 2.539062 -26.695312 2.125 -27.15625 C 1.71875 -27.625 1.203125 -27.96875 0.578125 -28.1875 L 0.578125 -28.765625 L 6.734375 -28.765625 L 16.890625 -11.921875 L 26.546875 -28.765625 L 32.375 -28.765625 L 32.375 -28.1875 C 31.75 -27.96875 31.226562 -27.625 30.8125 -27.15625 C 30.40625 -26.695312 30.097656 -25.988281 29.890625 -25.03125 C 29.691406 -24.070312 29.59375 -22.753906 29.59375 -21.078125 L 29.59375 -5.21875 C 29.59375 -3.738281 29.691406 -2.648438 29.890625 -1.953125 C 30.097656 -1.253906 30.546875 -0.796875 31.234375 -0.578125 L 31.234375 0 L 23.59375 0 L 23.59375 -0.578125 C 24.269531 -0.796875 24.710938 -1.253906 24.921875 -1.953125 C 25.128906 -2.648438 25.234375 -3.738281 25.234375 -5.21875 L 25.234375 -25.109375 L 15.375 -7.8125 L 14.421875 -7.8125 L 4.109375 -24.734375 L 4.109375 -7.6875 C 4.109375 -6.007812 4.21875 -4.691406 4.4375 -3.734375 C 4.65625 -2.773438 5 -2.0625 5.46875 -1.59375 C 5.9375 -1.132812 6.523438 -0.796875 7.234375 -0.578125 L 7.234375 0 Z M 1.71875 0 "/></g></g></g><g fill="#221c16" fill-opacity="1"><g transform="translate(108.686222, 264.876647)"><g><path d="M -0.859375 0 L -0.859375 -0.578125 C -0.234375 -0.796875 0.359375 -1.21875 0.921875 -1.84375 C 1.484375 -2.476562 2.039062 -3.476562 2.59375 -4.84375 L 10.28125 -23.921875 C 10.570312 -24.679688 10.539062 -25.421875 10.1875 -26.140625 L 9.65625 -27.28125 L 13.6875 -29.09375 L 23.875 -4.8125 C 24.445312 -3.46875 25 -2.476562 25.53125 -1.84375 C 26.070312 -1.21875 26.578125 -0.796875 27.046875 -0.578125 L 27.046875 0 L 19.5625 0 L 19.5625 -0.578125 C 20.25 -0.796875 20.5 -1.21875 20.3125 -1.84375 C 20.132812 -2.476562 19.757812 -3.46875 19.1875 -4.8125 L 16.71875 -10.71875 L 5.75 -10.71875 L 3.375 -4.84375 C 2.820312 -3.476562 2.597656 -2.46875 2.703125 -1.8125 C 2.816406 -1.15625 3.21875 -0.742188 3.90625 -0.578125 L 3.90625 0 Z M 6 -11.390625 L 16.4375 -11.390625 L 11.140625 -24.078125 Z M 6 -11.390625 "/></g></g></g><g fill="#221c16" fill-opacity="1"><g transform="translate(143.323595, 264.876647)"><g><path d="M 23.59375 0.328125 L 4.3125 -24 L 4.3125 -7.6875 C 4.3125 -6.007812 4.421875 -4.691406 4.640625 -3.734375 C 4.859375 -2.773438 5.203125 -2.0625 5.671875 -1.59375 C 6.140625 -1.132812 6.726562 -0.796875 7.4375 -0.578125 L 7.4375 0 L 1.9375 0 L 1.9375 -0.578125 C 2.613281 -0.796875 3.054688 -1.253906 3.265625 -1.953125 C 3.472656 -2.648438 3.578125 -3.738281 3.578125 -5.21875 L 3.578125 -23.546875 C 3.578125 -25.023438 3.4375 -26.113281 3.15625 -26.8125 C 2.882812 -27.507812 2.3125 -27.96875 1.4375 -28.1875 L 1.4375 -28.765625 L 6.078125 -28.765625 L 23.34375 -7.15625 L 23.34375 -21.078125 C 23.34375 -22.753906 23.234375 -24.070312 23.015625 -25.03125 C 22.796875 -25.988281 22.453125 -26.695312 21.984375 -27.15625 C 21.515625 -27.625 20.925781 -27.96875 20.21875 -28.1875 L 20.21875 -28.765625 L 25.765625 -28.765625 L 25.765625 -28.1875 C 25.078125 -27.96875 24.628906 -27.507812 24.421875 -26.8125 C 24.222656 -26.113281 24.125 -25.023438 24.125 -23.546875 L 24.125 0.328125 Z M 23.59375 0.328125 "/></g></g></g><g fill="#221c16" fill-opacity="1"><g transform="translate(178.741603, 264.876647)"><g><path d="M 1.9375 0 L 1.9375 -0.578125 C 2.613281 -0.796875 3.054688 -1.253906 3.265625 -1.953125 C 3.472656 -2.648438 3.578125 -3.738281 3.578125 -5.21875 L 3.578125 -23.546875 C 3.578125 -25.023438 3.472656 -26.113281 3.265625 -26.8125 C 3.054688 -27.507812 2.613281 -27.96875 1.9375 -28.1875 L 1.9375 -28.765625 L 12.203125 -28.765625 C 15.160156 -28.765625 17.644531 -28.335938 19.65625 -27.484375 C 21.675781 -26.640625 23.285156 -25.523438 24.484375 -24.140625 C 25.691406 -22.753906 26.566406 -21.253906 27.109375 -19.640625 C 27.660156 -18.023438 27.9375 -16.460938 27.9375 -14.953125 C 27.96875 -11.992188 27.375 -9.390625 26.15625 -7.140625 C 24.9375 -4.898438 23.207031 -3.148438 20.96875 -1.890625 C 18.738281 -0.628906 16.117188 0 13.109375 0 Z M 7.9375 -3.65625 C 7.9375 -2.695312 8.097656 -1.957031 8.421875 -1.4375 C 8.753906 -0.914062 9.484375 -0.65625 10.609375 -0.65625 L 12.828125 -0.65625 C 16.140625 -0.65625 18.675781 -1.609375 20.4375 -3.515625 C 22.207031 -5.421875 23.09375 -8.5625 23.09375 -12.9375 C 23.09375 -15.757812 22.597656 -18.316406 21.609375 -20.609375 C 20.628906 -22.898438 19.144531 -24.722656 17.15625 -26.078125 C 15.164062 -27.429688 12.640625 -28.109375 9.578125 -28.109375 L 7.9375 -28.109375 Z M 7.9375 -3.65625 "/></g></g></g><g fill="#221c16" fill-opacity="1"><g transform="translate(216.994542, 264.876647)"><g><path d="M -0.859375 0 L -0.859375 -0.578125 C -0.234375 -0.796875 0.359375 -1.21875 0.921875 -1.84375 C 1.484375 -2.476562 2.039062 -3.476562 2.59375 -4.84375 L 10.28125 -23.921875 C 10.570312 -24.679688 10.539062 -25.421875 10.1875 -26.140625 L 9.65625 -27.28125 L 13.6875 -29.09375 L 23.875 -4.8125 C 24.445312 -3.46875 25 -2.476562 25.53125 -1.84375 C 26.070312 -1.21875 26.578125 -0.796875 27.046875 -0.578125 L 27.046875 0 L 19.5625 0 L 19.5625 -0.578125 C 20.25 -0.796875 20.5 -1.21875 20.3125 -1.84375 C 20.132812 -2.476562 19.757812 -3.46875 19.1875 -4.8125 L 16.71875 -10.71875 L 5.75 -10.71875 L 3.375 -4.84375 C 2.820312 -3.476562 2.597656 -2.46875 2.703125 -1.8125 C 2.816406 -1.15625 3.21875 -0.742188 3.90625 -0.578125 L 3.90625 0 Z M 6 -11.390625 L 16.4375 -11.390625 L 11.140625 -24.078125 Z M 6 -11.390625 "/></g></g></g><g fill="#221c16" fill-opacity="1"><g transform="translate(251.631915, 264.876647)"><g><path d="M 1.9375 0 L 1.9375 -0.578125 C 2.613281 -0.796875 3.054688 -1.253906 3.265625 -1.953125 C 3.472656 -2.648438 3.578125 -3.738281 3.578125 -5.21875 L 3.578125 -23.546875 C 3.578125 -25.023438 3.472656 -26.113281 3.265625 -26.8125 C 3.054688 -27.507812 2.613281 -27.96875 1.9375 -28.1875 L 1.9375 -28.765625 L 9.578125 -28.765625 L 9.578125 -28.1875 C 8.890625 -27.96875 8.441406 -27.507812 8.234375 -26.8125 C 8.035156 -26.113281 7.9375 -25.023438 7.9375 -23.546875 L 7.9375 -2.796875 C 7.9375 -1.421875 8.617188 -0.734375 9.984375 -0.734375 L 13.359375 -0.734375 C 15.441406 -0.734375 17.078125 -1.046875 18.265625 -1.671875 C 19.453125 -2.304688 20.457031 -3.503906 21.28125 -5.265625 L 21.828125 -5.171875 L 21.484375 0 Z M 1.9375 0 "/></g></g></g><g fill="#221c16" fill-opacity="1"><g transform="translate(282.407215, 264.876647)"><g><path d="M -0.859375 0 L -0.859375 -0.578125 C -0.234375 -0.796875 0.359375 -1.21875 0.921875 -1.84375 C 1.484375 -2.476562 2.039062 -3.476562 2.59375 -4.84375 L 10.28125 -23.921875 C 10.570312 -24.679688 10.539062 -25.421875 10.1875 -26.140625 L 9.65625 -27.28125 L 13.6875 -29.09375 L 23.875 -4.8125 C 24.445312 -3.46875 25 -2.476562 25.53125 -1.84375 C 26.070312 -1.21875 26.578125 -0.796875 27.046875 -0.578125 L 27.046875 0 L 19.5625 0 L 19.5625 -0.578125 C 20.25 -0.796875 20.5 -1.21875 20.3125 -1.84375 C 20.132812 -2.476562 19.757812 -3.46875 19.1875 -4.8125 L 16.71875 -10.71875 L 5.75 -10.71875 L 3.375 -4.84375 C 2.820312 -3.476562 2.597656 -2.46875 2.703125 -1.8125 C 2.816406 -1.15625 3.21875 -0.742188 3.90625 -0.578125 L 3.90625 0 Z M 6 -11.390625 L 16.4375 -11.390625 L 11.140625 -24.078125 Z M 6 -11.390625 "/></g></g></g></svg>